<svg xmlns="http://www.w3.org/2000/svg" width="512" height="512" viewBox="0 0 512 512">
  <rect width="512" height="512" fill="#F7F8FC"/>
  <g id="logo">
  <rect x="40" y="40" width="432" height="432" rx="96" fill="#F7F8FC" stroke="#DAE2F0" stroke-width="8"/>
  <rect x="124" y="286" width="264" height="96" rx="24" fill="#EAF1FF" stroke="#93B5FF" stroke-width="8"/>
  <rect x="124" y="254" width="120" height="52" rx="18" fill="#EAF1FF" stroke="#93B5FF" stroke-width="8"/>
  <path d="M112 142 H72 V182 M400 142 H440 V182 M112 370 H72 V330 M400 370 H440 V330" fill="none" stroke="#2563EB" stroke-width="18" stroke-linecap="round"/>
  <path d="M160 224 C130 198 148 147 191 158 C206 102 286 105 300 159 C347 145 382 200 349 233 C356 264 332 290 299 286 H174 C139 290 121 249 160 224Z" fill="#FFFFFF" stroke="#2563EB" stroke-width="10" stroke-linejoin="round"/>
  <path d="M176 248 L220 224 L257 250 L315 220" fill="none" stroke="#10B981" stroke-width="10" stroke-linecap="round" stroke-linejoin="round"/>
  <path d="M362 96 L383 158 L447 176 L392 207 L377 272 L343 214 L279 196 L337 162Z" fill="#F59E0B"/>
</g>
  <text x="256" y="462" text-anchor="middle" font-family="Noto-Sans-CJK-KR, Noto Sans CJK KR, Noto Sans, Arial" font-size="34" font-weight="700" fill="#111827">CaptureBrain</text>
</svg>